<svg width="60" height="60" viewBox="0 0 60 60" fill="none" xmlns="http://www.w3.org/2000/svg">
<path d="M0 10C0 4.47715 4.47715 0 10 0H50C55.5228 0 60 4.47715 60 10V50C60 55.5228 55.5228 60 50 60H10C4.47715 60 0 55.5228 0 50V10Z" fill="#B9FBC0"/>
<path fill-rule="evenodd" clip-rule="evenodd" d="M35.3626 35.2548H30.9573C30.4053 35.2548 29.9573 34.8068 29.9573 34.2548C29.9573 33.7028 30.4053 33.2548 30.9573 33.2548H35.3626C35.9146 33.2548 36.3626 33.7028 36.3626 34.2548C36.3626 34.8068 35.9146 35.2548 35.3626 35.2548ZM28.508 31.0335L25.3453 34.1962C25.1506 34.3922 24.8946 34.4895 24.6386 34.4895C24.3826 34.4895 24.1266 34.3922 23.932 34.1962C23.5413 33.8055 23.5413 33.1722 23.932 32.7828L26.388 30.3268L23.932 27.8708C23.5413 27.4802 23.5413 26.8468 23.932 26.4562C24.3226 26.0655 24.9546 26.0655 25.3453 26.4562L28.508 29.6188C28.8986 30.0095 28.8986 30.6428 28.508 31.0335ZM35.624 17.3335H24.3773C20.164 17.3335 17.3333 20.2935 17.3333 24.7015V35.2975C17.3333 39.7055 20.164 42.6668 24.3773 42.6668H35.6226C39.836 42.6668 42.6666 39.7055 42.6666 35.2975V24.7015C42.6666 20.2935 39.836 17.3335 35.624 17.3335Z" fill="#091540"/>
</svg>
