<svg width="60" height="60" viewBox="0 0 60 60" fill="none" xmlns="http://www.w3.org/2000/svg">
<path d="M0 10C0 4.47715 4.47715 0 10 0H50C55.5228 0 60 4.47715 60 10V50C60 55.5228 55.5228 60 50 60H10C4.47715 60 0 55.5228 0 50V10Z" fill="#B8B8FF"/>
<path fill-rule="evenodd" clip-rule="evenodd" d="M24.4026 34.6665H20.9306C18.948 34.6665 17.3333 36.2798 17.3333 38.2638V39.0692C17.3333 41.0532 18.948 42.6665 20.9306 42.6665H24.4026C26.3866 42.6665 28 41.0532 28 39.0692V38.2638C28 36.2798 26.3866 34.6665 24.4026 34.6665Z" fill="#091540"/>
<path fill-rule="evenodd" clip-rule="evenodd" d="M39.0693 17.3335H35.5973C33.6133 17.3335 32 18.9468 32 20.9308V21.7362C32 23.7202 33.6133 25.3335 35.5973 25.3335H39.0693C41.0533 25.3335 42.6667 23.7202 42.6667 21.7362V20.9308C42.6667 18.9468 41.0533 17.3335 39.0693 17.3335Z" fill="#091540"/>
<path fill-rule="evenodd" clip-rule="evenodd" d="M39.0693 29.3335H35.5973C33.6133 29.3335 32 30.9468 32 32.9308V39.0695C32 41.0535 33.6133 42.6668 35.5973 42.6668H39.0693C41.0533 42.6668 42.6667 41.0535 42.6667 39.0695V32.9308C42.6667 30.9468 41.0533 29.3335 39.0693 29.3335Z" fill="#091540"/>
<path fill-rule="evenodd" clip-rule="evenodd" d="M24.4026 17.3335H20.9306C18.948 17.3335 17.3333 18.9468 17.3333 20.9308V27.0695C17.3333 29.0535 18.948 30.6668 20.9306 30.6668H24.4026C26.3866 30.6668 28 29.0535 28 27.0695V20.9308C28 18.9468 26.3866 17.3335 24.4026 17.3335Z" fill="#091540"/>
</svg>
