<svg width="60" height="60" viewBox="0 0 60 60" fill="none" xmlns="http://www.w3.org/2000/svg">
<path d="M0 10C0 4.47715 4.47715 0 10 0H50C55.5228 0 60 4.47715 60 10V50C60 55.5228 55.5228 60 50 60H10C4.47715 60 0 55.5228 0 50V10Z" fill="#F1C0E8"/>
<path d="M36.5529 16.0076C41.1334 16.0076 44 19.2372 44 23.8176V36.1809C44 40.7613 41.1334 43.9925 36.5529 43.9925H23.4319C18.8514 43.9925 16 40.7613 16 36.1809V23.8176C16 19.2372 18.8666 16.0076 23.4319 16.0076H30.3078M23.0668 43.9789L32.6073 33.1345C33.7752 31.8139 33.6389 29.7974 32.32 28.6433L30.591 27.1276C29.2552 25.9446 27.2524 26.0808 26.0846 27.3998L23.9623 29.8111L16.2717 38.5182M27.2056 32.6705L30.4519 35.5295M37.2871 27.0223V26.9618M35.2042 37.5682V37.6287M21.9533 22.7688V22.7083M36.575 22.4665V22.406" stroke="#091540" stroke-width="2.33333" stroke-linecap="round" stroke-linejoin="round"/>
</svg>
