<svg width="60" height="60" viewBox="0 0 60 60" fill="none" xmlns="http://www.w3.org/2000/svg">
<path d="M0 10C0 4.47715 4.47715 0 10 0H50C55.5228 0 60 4.47715 60 10V50C60 55.5228 55.5228 60 50 60H10C4.47715 60 0 55.5228 0 50V10Z" fill="#FFD8BE"/>
<path fill-rule="evenodd" clip-rule="evenodd" d="M23.9553 21.8532C24.6927 21.8532 25.2887 21.2572 25.2887 20.5198V17.9998C25.2887 17.2638 24.6927 16.6665 23.9553 16.6665C23.218 16.6665 22.622 17.2638 22.622 17.9998V20.5198C22.622 21.2572 23.218 21.8532 23.9553 21.8532Z" fill="#091540"/>
<path fill-rule="evenodd" clip-rule="evenodd" d="M21.8498 23.9583C21.8498 23.221 21.2538 22.625 20.5165 22.625H18.0005C17.2645 22.625 16.6672 23.221 16.6672 23.9583C16.6672 24.6957 17.2645 25.2917 18.0005 25.2917H20.5165C21.2538 25.2917 21.8498 24.6957 21.8498 23.9583Z" fill="#091540"/>
<path fill-rule="evenodd" clip-rule="evenodd" d="M36.0478 38.146C35.3104 38.146 34.7144 38.742 34.7144 39.4793V41.9993C34.7144 42.7353 35.3104 43.3327 36.0478 43.3327C36.7851 43.3327 37.3811 42.7353 37.3811 41.9993V39.4793C37.3811 38.742 36.7851 38.146 36.0478 38.146Z" fill="#091540"/>
<path fill-rule="evenodd" clip-rule="evenodd" d="M41.9996 34.708H39.4836C38.7476 34.708 38.1502 35.3041 38.1502 36.0413C38.1502 36.7787 38.7476 37.3747 39.4836 37.3747H41.9996C42.7369 37.3747 43.3329 36.7787 43.3329 36.0413C43.3329 35.3041 42.7369 34.708 41.9996 34.708Z" fill="#091540"/>
<path fill-rule="evenodd" clip-rule="evenodd" d="M31.6037 36.1273L30.2944 37.4433C28.1584 39.5713 24.6878 39.5726 22.5584 37.4446C20.4264 35.3113 20.4264 31.838 22.5571 29.7073L23.8691 28.3993C24.3904 27.878 24.3931 27.0353 23.8731 26.5126C23.3518 25.99 22.5091 25.9886 21.9864 26.5086L20.6731 27.8193C17.5024 30.9926 17.5024 36.1553 20.6731 39.33C22.2571 40.914 24.3384 41.7046 26.4211 41.7046C28.5051 41.7046 30.5904 40.9126 32.1811 39.3273L33.4944 38.0073C34.0144 37.486 34.0117 36.642 33.4891 36.122C32.9664 35.602 32.1237 35.606 31.6037 36.1273Z" fill="#091540"/>
<path fill-rule="evenodd" clip-rule="evenodd" d="M41.5517 26.5792C41.5531 24.3979 40.7104 22.3525 39.1771 20.8179C36.0104 17.6512 30.8504 17.6512 27.6704 20.8179L26.3504 22.1379C25.8291 22.6592 25.8291 23.5019 26.3504 24.0232C26.8704 24.5445 27.7144 24.5445 28.2357 24.0232L29.5544 22.7045C31.6904 20.5765 35.1611 20.5725 37.2917 22.7032C38.3197 23.7325 38.8864 25.1085 38.8851 26.5779C38.8851 28.0446 38.3184 29.4179 37.2917 30.4432L35.9691 31.7646C35.4491 32.2832 35.4491 33.1286 35.9691 33.6499C36.2304 33.9099 36.5717 34.0406 36.9131 34.0406C37.2531 34.0406 37.5944 33.9099 37.8557 33.6499L39.1771 32.3286C40.7064 30.8006 41.5504 28.7592 41.5517 26.5792Z" fill="#091540"/>
</svg>
