<svg width="60" height="60" viewBox="0 0 60 60" fill="none" xmlns="http://www.w3.org/2000/svg">
<path d="M0 10C0 4.47715 4.47715 0 10 0H50C55.5228 0 60 4.47715 60 10V50C60 55.5228 55.5228 60 50 60H10C4.47715 60 0 55.5228 0 50V10Z" fill="#90DBF4"/>
<path fill-rule="evenodd" clip-rule="evenodd" d="M36.3578 23.6483C37.2551 23.6576 38.5018 23.6616 39.5591 23.6576C40.1004 23.6563 40.3751 23.0029 40.0004 22.6083C39.3218 21.8963 38.3764 20.9029 37.4271 19.9056C36.4738 18.9043 35.5164 17.8989 34.8204 17.1683C34.4351 16.7643 33.7631 17.0416 33.7631 17.6016V21.0269C33.7631 22.4643 34.9351 23.6483 36.3578 23.6483Z" fill="#091540"/>
<path fill-rule="evenodd" clip-rule="evenodd" d="M29.5576 33.507H23.2523C22.6989 33.507 22.2523 33.059 22.2523 32.507C22.2523 31.955 22.6989 31.507 23.2523 31.507H29.5576C30.1096 31.507 30.5576 31.955 30.5576 32.507C30.5576 33.059 30.1096 33.507 29.5576 33.507ZM23.2509 26.003H26.5429C27.0949 26.003 27.5429 26.451 27.5429 27.003C27.5429 27.555 27.0949 28.003 26.5429 28.003H23.2509C22.6976 28.003 22.2509 27.555 22.2509 27.003C22.2509 26.451 22.6976 26.003 23.2509 26.003ZM33.9936 31.8217C35.1136 29.8764 37.6083 29.2057 39.5589 30.3284L40.5989 30.9297C40.6416 30.9537 40.6749 30.987 40.7149 31.0137V26.131C40.7149 25.807 40.4576 25.547 40.1363 25.547H36.1869C33.8323 25.5337 31.8896 23.5843 31.8896 21.207V17.0216C31.8896 16.6976 31.6323 16.4243 31.2976 16.4243H24.4269C21.2243 16.4243 18.6243 19.0616 18.6243 22.2843V36.2924C18.6243 39.671 21.3523 42.4137 24.6976 42.4137H30.4763C30.4256 42.2617 30.3656 42.1137 30.3336 41.955L30.1549 41.063C29.9096 39.8204 30.1216 38.531 30.7536 37.431L33.9936 31.8217Z" fill="#091540"/>
<path fill-rule="evenodd" clip-rule="evenodd" d="M39.3221 34.9749L36.0848 40.5815C35.8954 40.9095 35.5928 41.1575 35.2368 41.2802L34.3368 41.5549L34.1581 40.6589C34.0848 40.2882 34.1488 39.9015 34.3381 39.5735L37.5754 33.9655C37.6514 33.8349 37.7901 33.7615 37.9301 33.7615C37.9994 33.7615 38.0701 33.7789 38.1328 33.8162L39.1728 34.4162C39.3674 34.5295 39.4341 34.7802 39.3221 34.9749ZM40.1728 32.6842L39.1314 32.0842C37.9861 31.4215 36.5088 31.8162 35.8448 32.9655L32.6048 38.5749C32.1741 39.3242 32.0288 40.2029 32.1968 41.0495L32.3754 41.9442C32.4874 42.5162 32.8434 43.0109 33.3488 43.3042C33.6594 43.4829 34.0101 43.5749 34.3608 43.5749C34.5794 43.5749 34.7981 43.5389 35.0101 43.4682L35.8781 43.1735C36.6954 42.8949 37.3848 42.3309 37.8168 41.5815L41.0554 35.9735C41.7168 34.8229 41.3208 33.3482 40.1728 32.6842Z" fill="#091540"/>
</svg>
