<svg width="60" height="60" viewBox="0 0 60 60" fill="none" xmlns="http://www.w3.org/2000/svg">
<path d="M0 10C0 4.47715 4.47715 0 10 0H50C55.5228 0 60 4.47715 60 10V50C60 55.5228 55.5228 60 50 60H10C4.47715 60 0 55.5228 0 50V10Z" fill="#98F5E1"/>
<path fill-rule="evenodd" clip-rule="evenodd" d="M21.5988 18.3428C19.2121 18.3428 17.2654 20.2894 17.2654 22.6761V24.9155C17.2654 25.063 17.3847 25.1825 17.5322 25.1822C18.6977 25.1798 23.3868 25.1702 25.6663 25.1695C25.8136 25.1694 25.9321 25.05 25.9321 24.9028V22.6761C25.9321 20.2894 23.9988 18.3428 21.5988 18.3428Z" fill="#091540"/>
<path fill-rule="evenodd" clip-rule="evenodd" d="M17.5322 27.1567C17.3847 27.1564 17.2654 27.2759 17.2654 27.4234V31.5816C17.2654 31.6412 17.3258 31.6894 17.3854 31.6894H25.6654C25.8127 31.6894 25.9321 31.5701 25.9321 31.4228V27.4361C25.9321 27.2889 25.8136 27.1695 25.6663 27.1695C23.3868 27.1687 18.6977 27.1592 17.5322 27.1567Z" fill="#091540"/>
<path fill-rule="evenodd" clip-rule="evenodd" d="M21.5988 36.2096C22.2654 36.2096 22.7988 36.7562 22.7988 37.4096C22.7988 38.0762 22.2654 38.6096 21.5988 38.6096C20.9454 38.6096 20.3988 38.0762 20.3988 37.4096C20.3988 36.7562 20.9454 36.2096 21.5988 36.2096ZM17.5322 33.6768C17.3847 33.6765 17.2654 33.796 17.2654 33.9434V37.3429C17.2654 39.7429 19.2121 41.6762 21.5988 41.6762C23.9988 41.6762 25.9321 39.7429 25.9321 37.3429V33.9562C25.9321 33.809 25.8136 33.6896 25.6663 33.6896C23.3868 33.6888 18.6977 33.6793 17.5322 33.6768Z" fill="#091540"/>
<path fill-rule="evenodd" clip-rule="evenodd" d="M38.6368 23.8596C37.4235 20.5529 33.5568 19.9662 31.4102 22.1129L28.06 25.4375C27.9598 25.537 27.9031 25.6722 27.9024 25.8135L27.8768 31.033L27.8635 32.6863V32.6996L27.84 37.2918C27.8388 37.5299 28.1267 37.65 28.2952 37.4818L37.6502 28.1396C38.7702 27.0196 39.1835 25.3529 38.6368 23.8596Z" fill="#091540"/>
<path fill-rule="evenodd" clip-rule="evenodd" d="M38.8973 33.0156H35.8558C35.7158 33.0156 35.5814 33.0707 35.4817 33.1688L27.296 41.2255C27.126 41.393 27.2445 41.6823 27.483 41.6823H39.0453C40.6266 41.6823 42.1066 40.797 42.7706 39.3623C44.2506 36.1583 41.9346 33.0156 38.8973 33.0156Z" fill="#091540"/>
</svg>
