<svg width="60" height="60" viewBox="0 0 60 60" fill="none" xmlns="http://www.w3.org/2000/svg">
<path d="M0 10C0 4.47715 4.47715 0 10 0H50C55.5228 0 60 4.47715 60 10V50C60 55.5228 55.5228 60 50 60H10C4.47715 60 0 55.5228 0 50V10Z" fill="#FFCFD2"/>
<path fill-rule="evenodd" clip-rule="evenodd" d="M35.5323 28.3212L31.6123 32.2412C31.4256 32.4412 31.1589 32.5346 30.9056 32.5346C30.6523 32.5346 30.3989 32.4412 30.1989 32.2412C29.8123 31.8546 29.8123 31.2146 30.1989 30.8279L34.1189 26.9079C34.5189 26.5212 35.1456 26.5212 35.5323 26.9079C35.9323 27.2946 35.9323 27.9346 35.5323 28.3212ZM30.9189 20.6946C24.9189 20.6946 20.0389 25.5746 20.0389 31.5746C20.0389 31.711 20.0424 31.8475 20.0476 31.9822C20.0558 32.1947 20.2323 32.3612 20.4451 32.3612H24.9189C26.3989 32.3612 27.5856 33.5479 27.5856 35.0279C27.5856 35.094 27.5828 35.1592 27.5776 35.2235C27.556 35.4896 27.7464 35.7479 28.0135 35.7479H28.2389C29.7056 35.7479 30.9056 36.9346 30.9056 38.4146C30.9056 38.6392 30.8761 38.8596 30.822 39.0712C30.7633 39.3004 30.9223 39.5479 31.1589 39.5479C32.4029 39.5479 33.4508 40.4054 33.7384 41.5656C33.7997 41.8128 34.0443 41.991 34.2865 41.9122C38.6431 40.4946 41.7989 36.4011 41.7989 31.5746C41.7989 25.5746 36.9189 20.6946 30.9189 20.6946Z" fill="#091540"/>
<path fill-rule="evenodd" clip-rule="evenodd" d="M28.1223 18.7859H33.733C34.285 18.7859 34.733 18.3379 34.733 17.7859C34.733 17.2339 34.285 16.7859 33.733 16.7859H28.1223C27.5703 16.7859 27.1223 17.2339 27.1223 17.7859C27.1223 18.3379 27.5703 18.7859 28.1223 18.7859Z" fill="#091540"/>
<path fill-rule="evenodd" clip-rule="evenodd" d="M29.2332 38.4128C29.2332 37.8608 28.7852 37.4128 28.233 37.4128H22.5118C21.9598 37.4128 21.5118 37.8608 21.5118 38.4128C21.5118 38.9648 21.9598 39.4128 22.5118 39.4128H28.233C28.7852 39.4128 29.2332 38.9648 29.2332 38.4128Z" fill="#091540"/>
<path fill-rule="evenodd" clip-rule="evenodd" d="M31.1522 41.2141H25.431C24.879 41.2141 24.431 41.6621 24.431 42.2141C24.431 42.7661 24.879 43.2141 25.431 43.2141H31.1522C31.7042 43.2141 32.1522 42.7661 32.1522 42.2141C32.1522 41.6621 31.7042 41.2141 31.1522 41.2141Z" fill="#091540"/>
<path fill-rule="evenodd" clip-rule="evenodd" d="M25.9238 35.0259C25.9238 34.4739 25.4758 34.0259 24.9238 34.0259H19.2012C18.6492 34.0259 18.2012 34.4739 18.2012 35.0259C18.2012 35.5779 18.6492 36.0259 19.2012 36.0259H24.9238C25.4758 36.0259 25.9238 35.5779 25.9238 35.0259Z" fill="#091540"/>
</svg>
