<svg width="60" height="60" viewBox="0 0 60 60" fill="none" xmlns="http://www.w3.org/2000/svg">
<path d="M0 10C0 4.47715 4.47715 0 10 0H50C55.5228 0 60 4.47715 60 10V50C60 55.5228 55.5228 60 50 60H10C4.47715 60 0 55.5228 0 50V10Z" fill="#A3C4F3"/>
<path fill-rule="evenodd" clip-rule="evenodd" d="M20.1294 20.3209C21.3194 19.0443 23.0115 18.3333 25.0009 18.3333H27.6414C28.1937 18.3333 28.6414 18.781 28.6414 19.3333C28.6414 19.8855 28.1937 20.3333 27.6414 20.3333H25.0009C23.507 20.3333 22.3654 20.8553 21.5923 21.6846C20.8121 22.5216 20.3333 23.7525 20.3333 25.29V34.7098C20.3333 36.2486 20.8102 37.4793 21.5888 38.3158C22.3599 39.1441 23.501 39.6666 25.0009 39.6666H34.9968C36.4973 39.6666 37.639 39.1439 38.4105 38.3155C39.1896 37.4791 39.6666 36.2485 39.6666 34.7098V32.6465C39.6666 32.0942 40.1144 31.6465 40.6666 31.6465C41.2189 31.6465 41.6666 32.0942 41.6666 32.6465V34.7098C41.6666 36.6615 41.0562 38.4093 39.8741 39.6786C38.6845 40.9561 36.9912 41.6666 34.9968 41.6666H25.0009C23.0068 41.6666 21.3141 40.9559 20.1249 39.6785C18.9433 38.4091 18.3333 36.6614 18.3333 34.7098V25.29C18.3333 23.3371 18.9467 21.5896 20.1294 20.3209Z" fill="#091540"/>
<path fill-rule="evenodd" clip-rule="evenodd" d="M35.3945 20.3333C34.8421 20.3333 34.3945 19.8855 34.3945 19.3333C34.3945 18.781 34.8421 18.3333 35.3945 18.3333H40.6657C41.218 18.3333 41.6657 18.781 41.6657 19.3333V24.6045C41.6657 25.1568 41.218 25.6045 40.6657 25.6045C40.1134 25.6045 39.6657 25.1568 39.6657 24.6045V21.7475L31.5757 29.8375H34.4326C34.9849 29.8375 35.4326 30.2853 35.4326 30.8375C35.4326 31.3898 34.9849 31.8375 34.4326 31.8375H29.1614C28.8962 31.8375 28.6418 31.7322 28.4544 31.5446C28.2668 31.3571 28.1614 31.1027 28.1614 30.8375V25.5662C28.1614 25.0139 28.6092 24.5662 29.1614 24.5662C29.7137 24.5662 30.1614 25.0139 30.1614 25.5662V28.4233L38.2514 20.3333H35.3945Z" fill="#091540"/>
</svg>
